<svg width="28" height="28" viewBox="0 0 28 28" fill="none" xmlns="http://www.w3.org/2000/svg">
<g clip-path="url(#clip0_73_9102)">
<path d="M0.714989 20.691C0.795789 20.5617 0.925074 20.5536 1.10287 20.6668C5.14326 23.0102 9.53923 24.1819 14.2907 24.1819C17.4584 24.1819 20.5857 23.592 23.6726 22.4122C23.7534 22.3799 23.8705 22.3314 24.0241 22.2668C24.1776 22.2021 24.2867 22.1536 24.3514 22.1213C24.5938 22.0244 24.7837 22.0728 24.921 22.2668C25.0584 22.4607 25.014 22.6385 24.7877 22.8001C24.4968 23.0102 24.1251 23.2527 23.6726 23.5274C22.2826 24.3516 20.7311 24.99 19.018 25.4425C17.3049 25.8951 15.6322 26.1213 13.9998 26.1213C11.4786 26.1213 9.09477 25.6809 6.84832 24.8001C4.60185 23.9193 2.58973 22.6789 0.811958 21.0789C0.714989 20.9981 0.666504 20.9173 0.666504 20.8365C0.666504 20.788 0.682649 20.7395 0.714989 20.691ZM8.01196 13.7819C8.01196 12.6668 8.2867 11.7133 8.8362 10.9213C9.38568 10.1294 10.1372 9.53144 11.0907 9.12739C11.9635 8.75568 13.0382 8.48902 14.315 8.32739C14.7514 8.27891 15.4625 8.21425 16.4483 8.13345V7.72133C16.4483 6.68698 16.3352 5.99205 16.1089 5.63648C15.7695 5.15163 15.2362 4.90921 14.5089 4.90921H14.315C13.7817 4.95769 13.321 5.12739 12.9332 5.4183C12.5453 5.70921 12.2948 6.11326 12.1817 6.63042C12.117 6.95365 11.9554 7.13951 11.6968 7.188L8.90893 6.8486C8.63416 6.78395 8.49681 6.63849 8.49681 6.41224C8.49681 6.36376 8.50488 6.3072 8.52105 6.24254C8.79579 4.80417 9.47053 3.7375 10.5453 3.04254C11.62 2.34759 12.8766 1.95971 14.315 1.87891H14.921C16.7635 1.87891 18.2018 2.35568 19.2362 3.30921C19.3984 3.47156 19.5483 3.64578 19.6847 3.83042C19.822 4.01629 19.9311 4.18194 20.012 4.32739C20.0928 4.47285 20.1655 4.68296 20.2301 4.95769C20.2948 5.23243 20.3433 5.42235 20.3756 5.52739C20.4079 5.63243 20.4322 5.85871 20.4483 6.20618C20.4645 6.55365 20.4726 6.75971 20.4726 6.82436V12.691C20.4726 13.1112 20.5332 13.4951 20.6544 13.8425C20.7756 14.19 20.8928 14.4405 21.0059 14.5941C21.119 14.7476 21.3049 14.9941 21.5635 15.3335C21.6604 15.4789 21.7089 15.6082 21.7089 15.7213C21.7089 15.8506 21.6443 15.9638 21.515 16.0607C20.1736 17.2244 19.4463 17.8547 19.3332 17.9516C19.1392 18.0971 18.9049 18.1133 18.6301 18.0001C18.4039 17.8062 18.2059 17.6203 18.0362 17.4425C17.8665 17.2648 17.7453 17.1355 17.6726 17.0547C17.5998 16.9739 17.4826 16.8163 17.321 16.5819C17.1594 16.3476 17.0463 16.19 16.9817 16.1092C16.0766 17.0951 15.1877 17.7092 14.315 17.9516C13.7655 18.1133 13.0867 18.1941 12.2786 18.1941C11.0342 18.1941 10.012 17.8102 9.21196 17.0425C8.41196 16.2749 8.01196 15.188 8.01196 13.7819ZM12.1817 13.2971C12.1817 13.9274 12.3392 14.4324 12.6544 14.8122C12.9695 15.192 13.3938 15.3819 13.9271 15.3819C13.9756 15.3819 14.0443 15.3739 14.1332 15.3577C14.222 15.3415 14.2826 15.3335 14.315 15.3335C14.9938 15.1557 15.519 14.7193 15.8907 14.0244C16.0685 13.7173 16.2018 13.3819 16.2907 13.0183C16.3796 12.6547 16.4281 12.3597 16.4362 12.1335C16.4443 11.9072 16.4483 11.5355 16.4483 11.0183V10.4122C15.5109 10.4122 14.7998 10.4769 14.315 10.6062C12.8928 11.0102 12.1817 11.9072 12.1817 13.2971ZM22.3635 21.1032C22.3958 21.0385 22.4443 20.9739 22.5089 20.9092C22.913 20.6345 23.3008 20.4486 23.6726 20.3516C24.2867 20.19 24.8847 20.1011 25.4665 20.085C25.6281 20.0688 25.7817 20.0769 25.9271 20.1092C26.6544 20.1739 27.0907 20.2951 27.2362 20.4728C27.3008 20.5698 27.3332 20.7153 27.3332 20.9092V21.0789C27.3332 21.6446 27.1796 22.3112 26.8726 23.0789C26.5655 23.8466 26.1372 24.4648 25.5877 24.9335C25.5069 24.9981 25.4342 25.0304 25.3695 25.0304C25.3372 25.0304 25.3049 25.0224 25.2726 25.0062C25.1756 24.9577 25.1514 24.8688 25.1998 24.7395C25.7978 23.3335 26.0968 22.3557 26.0968 21.8062C26.0968 21.6284 26.0645 21.4991 25.9998 21.4183C25.8382 21.2244 25.3857 21.1274 24.6423 21.1274C24.3675 21.1274 24.0443 21.1436 23.6726 21.1759C23.2685 21.2244 22.8968 21.2728 22.5574 21.3213C22.4604 21.3213 22.3958 21.3052 22.3635 21.2728C22.3311 21.2405 22.3231 21.2082 22.3392 21.1759C22.3392 21.1597 22.3473 21.1355 22.3635 21.1032Z" fill="black"/>
</g>
<defs>
<clipPath id="clip0_73_9102">
<rect width="26.6667" height="26.6667" fill="white" transform="translate(0.666504 0.666016)"/>
</clipPath>
</defs>
</svg>
