<svg width="28" height="28" viewBox="0 0 28 28" fill="none" xmlns="http://www.w3.org/2000/svg">
<g clip-path="url(#clip0_73_9096)">
<path d="M27.0153 14.2497C27.0153 13.1572 26.9267 12.36 26.7348 11.5332H14.2593V16.4643H21.5821C21.4345 17.6897 20.6373 19.5352 18.8656 20.7753L18.8408 20.9404L22.7853 23.9962L23.0586 24.0235C25.5684 21.7055 27.0153 18.295 27.0153 14.2497Z" fill="#4285F4"/>
<path d="M14.2594 27.2416C17.847 27.2416 20.8588 26.0604 23.0587 24.023L18.8657 20.7749C17.7437 21.5574 16.2377 22.1037 14.2594 22.1037C10.7456 22.1037 7.76331 19.7858 6.7002 16.582L6.54438 16.5953L2.4428 19.7695L2.38916 19.9186C4.5742 24.2592 9.06244 27.2416 14.2594 27.2416Z" fill="#34A853"/>
<path d="M6.70003 16.5811C6.41952 15.7544 6.25718 14.8685 6.25718 13.9531C6.25718 13.0377 6.41952 12.1519 6.68527 11.3252L6.67784 11.1491L2.52486 7.92383L2.38898 7.98846C1.48842 9.78968 0.97168 11.8124 0.97168 13.9531C0.97168 16.0939 1.48842 18.1165 2.38898 19.9177L6.70003 16.5811Z" fill="#FBBC05"/>
<path d="M14.2594 5.80383C16.7544 5.80383 18.4375 6.88159 19.3972 7.78225L23.1472 4.12077C20.8441 1.98001 17.847 0.666016 14.2594 0.666016C9.06244 0.666016 4.5742 3.64831 2.38916 7.98886L6.68544 11.3256C7.76331 8.12179 10.7456 5.80383 14.2594 5.80383Z" fill="#EB4335"/>
</g>
<defs>
<clipPath id="clip0_73_9096">
<rect width="26.6667" height="26.6667" fill="white" transform="translate(0.666504 0.666016)"/>
</clipPath>
</defs>
</svg>
